<svg xmlns="http://www.w3.org/2000/svg" xmlns:xlink="http://www.w3.org/1999/xlink" width="643" height="24" viewBox="0 0 643 24">
  <defs>
    <clipPath id="clip-path">
      <rect id="矩形_244" data-name="矩形 244" width="643" height="24" fill="#fff" stroke="#707070" stroke-width="1"/>
    </clipPath>
    <linearGradient id="linear-gradient" x1="1" y1="0.5" x2="0" y2="0.5" gradientUnits="objectBoundingBox">
      <stop offset="0" stop-color="#34892c"/>
      <stop offset="1" stop-color="#36842d"/>
    </linearGradient>
    <linearGradient id="linear-gradient-3" x1="1" y1="0.5" x2="0" y2="0.5" gradientUnits="objectBoundingBox">
      <stop offset="0" stop-color="#348e2d"/>
      <stop offset="1" stop-color="#3e8533"/>
    </linearGradient>
  </defs>
  <g id="蒙版组_1" data-name="蒙版组 1" clip-path="url(#clip-path)">
    <g id="header" transform="translate(0 -402)">
      <rect id="矩形_144" data-name="矩形 144" width="6" height="18" transform="translate(0 402)" fill="#34832c"/>
      <rect id="矩形_145" data-name="矩形 145" width="4" height="17" transform="translate(8 402)" fill="#34832c"/>
      <rect id="矩形_149" data-name="矩形 149" width="9" height="10" transform="translate(9 414)" fill="#36842c"/>
      <rect id="矩形_150" data-name="矩形 150" width="28" height="11" transform="translate(20 402)" fill="url(#linear-gradient)"/>
      <rect id="矩形_154" data-name="矩形 154" width="19" height="11" transform="translate(48 402)" fill="url(#linear-gradient)"/>
      <rect id="矩形_156" data-name="矩形 156" width="21" height="12" transform="translate(67 402)" fill="#2f792c"/>
      <rect id="矩形_157" data-name="矩形 157" width="11" height="12" transform="translate(88 402)" fill="#3b8f2f"/>
      <rect id="矩形_160" data-name="矩形 160" width="11" height="12" transform="translate(99 402)" fill="#35822f"/>
      <rect id="矩形_161" data-name="矩形 161" width="24" height="12" transform="translate(135 402)" fill="#38872c"/>
      <rect id="矩形_166" data-name="矩形 166" width="25" height="5" transform="translate(135 414)" fill="#337b24"/>
      <rect id="矩形_167" data-name="矩形 167" width="15" height="5" transform="translate(142 419)" fill="#367c2b"/>
      <rect id="矩形_168" data-name="矩形 168" width="13" height="12" transform="translate(159 402)" fill="#3d8c34"/>
      <rect id="矩形_170" data-name="矩形 170" width="37" height="12" transform="translate(172 402)" fill="#32822d"/>
      <rect id="矩形_171" data-name="矩形 171" width="16" height="5" transform="translate(180 414)" fill="#2c732c"/>
      <rect id="矩形_172" data-name="矩形 172" width="13" height="5" transform="translate(196 414)" fill="#275922"/>
      <rect id="矩形_173" data-name="矩形 173" width="12" height="17" transform="translate(209 402)" fill="#3f952e"/>
      <rect id="矩形_174" data-name="矩形 174" width="21" height="12" transform="translate(221 402)" fill="#34832d"/>
      <rect id="矩形_175" data-name="矩形 175" width="8" height="5" transform="translate(231 414)" fill="#34832d"/>
      <rect id="矩形_176" data-name="矩形 176" width="10" height="10" transform="translate(239 414)" fill="#35742d"/>
      <rect id="矩形_179" data-name="矩形 179" width="34" height="12" transform="translate(242 402)" fill="#33802a"/>
      <rect id="矩形_180" data-name="矩形 180" width="12" height="9" transform="translate(264 414)" fill="#347728"/>
      <rect id="矩形_181" data-name="矩形 181" width="22" height="12" transform="translate(276 402)" fill="#388a30"/>
      <rect id="矩形_182" data-name="矩形 182" width="6" height="5" transform="translate(276 414)" fill="#3b8c2f"/>
      <rect id="矩形_183" data-name="矩形 183" width="5" height="5" transform="translate(288 414)" fill="#30772e"/>
      <rect id="矩形_184" data-name="矩形 184" width="12" height="12" transform="translate(298 402)" fill="#2e7529"/>
      <rect id="矩形_186" data-name="矩形 186" width="12" height="12" transform="translate(310 402)" fill="#33812c"/>
      <rect id="矩形_187" data-name="矩形 187" width="7" height="6" transform="translate(309 414)" fill="#307b2c"/>
      <rect id="矩形_188" data-name="矩形 188" width="10" height="5" transform="translate(318 414)" fill="#266923"/>
      <rect id="矩形_189" data-name="矩形 189" width="14" height="12" transform="translate(322 402)" fill="#35852d"/>
      <rect id="矩形_190" data-name="矩形 190" width="7" height="9" transform="translate(328 414)" fill="#35812d"/>
      <rect id="矩形_191" data-name="矩形 191" width="11" height="12" transform="translate(336 402)" fill="#3e9230"/>
      <rect id="矩形_194" data-name="矩形 194" width="11" height="12" transform="translate(347 402)" fill="#3b8431"/>
      <rect id="矩形_195" data-name="矩形 195" width="25" height="12" transform="translate(358 402)" fill="#31802c"/>
      <rect id="矩形_196" data-name="矩形 196" width="7" height="6" transform="translate(359 414)" fill="#2b6d25"/>
      <rect id="矩形_197" data-name="矩形 197" width="17" height="6" transform="translate(366 414)" fill="#33802d"/>
      <rect id="矩形_200" data-name="矩形 200" width="10" height="5" transform="translate(383 414)" fill="#2b6d21"/>
      <rect id="矩形_201" data-name="矩形 201" width="27" height="12" transform="translate(383 402)" fill="#3b8e31"/>
      <rect id="矩形_202" data-name="矩形 202" width="17" height="5" transform="translate(393 414)" fill="#3b8c2f"/>
      <rect id="矩形_205" data-name="矩形 205" width="16" height="7" transform="translate(410 402)" fill="#419633"/>
      <rect id="矩形_209" data-name="矩形 209" width="15" height="11" transform="translate(426 402)" fill="#33812e"/>
      <rect id="矩形_210" data-name="矩形 210" width="7" height="6" transform="translate(434 413)" fill="#2f7829"/>
      <rect id="矩形_211" data-name="矩形 211" width="17" height="12" transform="translate(441 402)" fill="#37892c"/>
      <rect id="矩形_212" data-name="矩形 212" width="8" height="6" transform="translate(450 414)" fill="#33852a"/>
      <rect id="矩形_213" data-name="矩形 213" width="6" height="16" transform="translate(458 402)" fill="#31792d"/>
      <rect id="矩形_214" data-name="矩形 214" width="12" height="12" transform="translate(464 402)" fill="#348631"/>
      <rect id="矩形_216" data-name="矩形 216" width="14" height="12" transform="translate(476 402)" fill="#3d9433"/>
      <rect id="矩形_218" data-name="矩形 218" width="17" height="12" transform="translate(490 402)" fill="#34802c"/>
      <rect id="矩形_219" data-name="矩形 219" width="6" height="6" transform="translate(507 402)" fill="#34812c"/>
      <rect id="矩形_220" data-name="矩形 220" width="7" height="5" transform="translate(493 414)" fill="#34812c"/>
      <rect id="矩形_221" data-name="矩形 221" width="18" height="5" transform="translate(500 414)" fill="#368b29"/>
      <rect id="矩形_223" data-name="矩形 223" width="30" height="6" transform="translate(507 408)" fill="#2f8028"/>
      <rect id="矩形_224" data-name="矩形 224" width="12" height="6" transform="translate(513 402)" fill="#30862a"/>
      <rect id="矩形_225" data-name="矩形 225" width="12" height="6" transform="translate(525 402)" fill="#328229"/>
      <rect id="矩形_226" data-name="矩形 226" width="7" height="5" transform="translate(518 414)" fill="#235e21"/>
      <rect id="矩形_164" data-name="矩形 164" width="6" height="9" transform="translate(121 414)" fill="#286325"/>
      <rect id="矩形_227" data-name="矩形 227" width="4" height="9" transform="translate(525 414)" fill="#35882e"/>
      <rect id="矩形_228" data-name="矩形 228" width="4" height="5" transform="translate(529 414)" fill="#35882e"/>
      <rect id="矩形_229" data-name="矩形 229" width="4" height="9" transform="translate(533 414)" fill="#2d7b26"/>
      <rect id="矩形_230" data-name="矩形 230" width="14" height="17" transform="translate(537 402)" fill="#35892d"/>
      <rect id="矩形_232" data-name="矩形 232" width="25" height="12" transform="translate(551 402)" fill="#347c2d"/>
      <rect id="矩形_233" data-name="矩形 233" width="13" height="5" transform="translate(563 414)" fill="#256022"/>
      <rect id="矩形_234" data-name="矩形 234" width="10" height="17" transform="translate(576 402)" fill="#378c2d"/>
      <rect id="矩形_235" data-name="矩形 235" width="13" height="12" transform="translate(586 402)" fill="#337f2c"/>
      <rect id="矩形_236" data-name="矩形 236" width="7" height="9" transform="translate(592 414)" fill="#347b2a"/>
      <rect id="矩形_237" data-name="矩形 237" width="10" height="18" transform="translate(599 402)" fill="#3e922e"/>
      <rect id="矩形_238" data-name="矩形 238" width="9" height="17" transform="translate(609 402)" fill="#357e2e"/>
      <rect id="矩形_239" data-name="矩形 239" width="14" height="12" transform="translate(618 402)" fill="#38872d"/>
      <rect id="矩形_240" data-name="矩形 240" width="14" height="6" transform="translate(623 414)" fill="#327b2c"/>
      <rect id="矩形_242" data-name="矩形 242" width="11" height="17" transform="translate(632 402)" fill="#327b2c"/>
      <rect id="矩形_241" data-name="矩形 241" width="9" height="4" transform="translate(628 420)" fill="#32782b"/>
      <rect id="矩形_231" data-name="矩形 231" width="6" height="4" transform="translate(537 419)" fill="#307b27"/>
      <rect id="矩形_222" data-name="矩形 222" width="11" height="5" transform="translate(501 419)" fill="#368528"/>
      <rect id="矩形_217" data-name="矩形 217" width="7" height="5" transform="translate(476 414)" fill="#408b35"/>
      <rect id="矩形_215" data-name="矩形 215" width="12" height="5" transform="translate(464 414)" fill="#2a692a"/>
      <rect id="矩形_206" data-name="矩形 206" width="5" height="5" transform="translate(410 409)" fill="#39862d"/>
      <rect id="矩形_207" data-name="矩形 207" width="3" height="4" transform="translate(423 409)" fill="#357e2d"/>
      <rect id="矩形_208" data-name="矩形 208" width="8" height="10" transform="translate(415 409)" fill="#3d9034"/>
      <rect id="矩形_203" data-name="矩形 203" width="5" height="4" transform="translate(392 419)" fill="#2d7525"/>
      <rect id="矩形_204" data-name="矩形 204" width="6" height="5" transform="translate(399 419)" fill="#318125"/>
      <rect id="矩形_198" data-name="矩形 198" width="10" height="4" transform="translate(368 420)" fill="#33802d"/>
      <rect id="矩形_199" data-name="矩形 199" width="6" height="6" transform="translate(378 420)" fill="#2f5225"/>
      <rect id="矩形_192" data-name="矩形 192" width="10" height="5" transform="translate(335 414)" fill="#328630"/>
      <rect id="矩形_193" data-name="矩形 193" width="8" height="6" transform="translate(345 414)" fill="#3a8a32"/>
      <rect id="矩形_185" data-name="矩形 185" width="4" height="5" transform="translate(299 414)" fill="#2b3f20"/>
      <rect id="矩形_177" data-name="矩形 177" width="5" height="5" transform="translate(249 414)" fill="#34832a"/>
      <rect id="矩形_178" data-name="矩形 178" width="8" height="5" transform="translate(256 414)" fill="#34832a"/>
      <rect id="矩形_169" data-name="矩形 169" width="8" height="6" transform="translate(164 414)" fill="#34732d"/>
      <rect id="矩形_162" data-name="矩形 162" width="6" height="5" transform="translate(105 414)" fill="#33812d"/>
      <rect id="矩形_243" data-name="矩形 243" width="25" height="13" transform="translate(110 402)" fill="#327f2d"/>
      <rect id="矩形_165" data-name="矩形 165" width="8" height="3" transform="translate(127 415)" fill="#2e7d2a"/>
      <rect id="矩形_158" data-name="矩形 158" width="21" height="5" transform="translate(78 414)" fill="#3b8f2f"/>
      <rect id="矩形_159" data-name="矩形 159" width="7" height="4" transform="translate(82 419)" fill="#3b8f2f"/>
      <rect id="矩形_155" data-name="矩形 155" width="11" height="11" transform="translate(62 408)" fill="#2f792c"/>
      <rect id="矩形_151" data-name="矩形 151" width="24" height="7" transform="translate(24 413)" fill="url(#linear-gradient-3)"/>
      <rect id="矩形_152" data-name="矩形 152" width="4" height="3" transform="translate(34 420)" fill="url(#linear-gradient-3)"/>
      <rect id="矩形_153" data-name="矩形 153" width="3" height="3" transform="translate(41 420)" fill="url(#linear-gradient-3)"/>
      <rect id="矩形_147" data-name="矩形 147" width="8" height="12" transform="translate(12 402)" fill="#30742b"/>
      <rect id="矩形_148" data-name="矩形 148" width="4" height="4" transform="translate(20 408)" fill="#327b2c"/>
      <rect id="矩形_146" data-name="矩形 146" width="2" height="16" transform="translate(6 402)" fill="#34832c"/>
      <rect id="矩形_163" data-name="矩形 163" width="10" height="10" transform="translate(111 414)" fill="#36832c"/>
    </g>
  </g>
</svg>
